<?xml version="1.0" encoding="utf-8"?>
<!-- Generator: Adobe Illustrator 26.5.0, SVG Export Plug-In . SVG Version: 6.00 Build 0)  -->
<svg version="1.1" id="Capa_1" xmlns="http://www.w3.org/2000/svg" xmlns:xlink="http://www.w3.org/1999/xlink" x="0px" y="0px"
	 viewBox="0 0 170.08 85.04" style="enable-background:new 0 0 170.08 85.04;" xml:space="preserve">
<style type="text/css">
	.st0{fill:none;}
	.st1{fill:#FAFAFA;}
	.st2{font-family:'MyriadPro-Regular';}
	.st3{font-size:67.5907px;}
	.st4{font-size:40.5544px;}
	.st5{font-size:6.7591px;}
	.st6{fill:#FAF9F5;}
	.st7{fill:none;stroke:#FAF9F5;stroke-miterlimit:10;}
</style>
<rect x="-0.93" y="11.26" class="st0" width="154.84" height="52.6"/>
<text transform="matrix(1 0 0 1 -0.9342 59.2443)"><tspan x="0" y="0" class="st1 st2 st3">cct</tspan><tspan x="82.93" y="0" class="st1 st2 st4">.ar</tspan></text>
<rect x="1.63" y="69.75" class="st0" width="159.98" height="7.47"/>
<text transform="matrix(1 0 0 1 1.6342 74.549)" class="st1 st2 st5">CLUB DE CANNABIS Y TECNOLOGIA SIMPLE ASOCIACION</text>
<g>
	<g>
		<path class="st6" d="M142.03,20.83c3.22,0,3.22-5,0-5C138.82,15.83,138.81,20.83,142.03,20.83L142.03,20.83z"/>
	</g>
</g>
<g>
	<g>
		<path class="st6" d="M158.75,20.83c3.22,0,3.22-5,0-5C155.53,15.83,155.52,20.83,158.75,20.83L158.75,20.83z"/>
	</g>
</g>
<g>
	<g>
		<path class="st6" d="M125.48,27.31c3.22,0,3.22-5,0-5C122.26,22.31,122.25,27.31,125.48,27.31L125.48,27.31z"/>
	</g>
</g>
<path class="st7" d="M108.85,34.22c-4.25-3.19,1.55-26.83,9.49-27.49c6.15-0.51,14.16,12.75,13.77,24.51
	c-0.3,9.01-5.36,12.23-3.37,17.22c2.68,6.73,15.02,8.77,24.18,5.63c0.12-0.04,0.3-0.1,0.52-0.18c1.5-0.54,13.37-4.88,15.09-16.05
	c1.24-8.08-3.39-16.17-9.79-19.54c-6.24-3.28-12.74-1.35-20.2,0.99C119.5,25.29,112.16,36.7,108.85,34.22z"/>
</svg>
